<svg width="42" height="32" viewBox="0 0 42 32" fill="none" xmlns="http://www.w3.org/2000/svg">
<path d="M5.6219 0.93042V12.6662C7.40872 10.5358 9.55059 9.46342 12.0346 9.46342C13.314 9.46342 14.4597 9.7078 15.4875 10.1922C16.5182 10.6738 17.2887 11.2919 17.809 12.0423C18.3323 12.7999 18.6859 13.6293 18.8771 14.5435C19.0668 15.4535 19.1617 16.8694 19.1617 18.7899V31.3379H13.6101V20.0362C13.6101 17.7937 13.5095 16.3735 13.2982 15.7697C13.1002 15.1783 12.7074 14.6715 12.1841 14.3322C11.6493 13.9714 10.9838 13.7932 10.1802 13.7932C9.26022 13.7932 8.43509 14.0232 7.71778 14.4803C6.98465 14.9403 6.45853 15.6274 6.12503 16.546C5.78578 17.466 5.61615 18.8244 5.6219 20.6227L5.61615 31.3379H0.0717163V0.93042H5.62334H5.6219ZM27.482 0.93042V12.6662C29.2702 10.5358 31.4107 9.46342 33.8932 9.46342C35.1683 9.46342 36.3226 9.7078 37.3518 10.1922C38.3782 10.6738 39.1487 11.2919 39.6662 12.0423C40.1885 12.7948 40.5519 13.6459 40.7343 14.5435C40.9255 15.4535 41.0203 16.8694 41.0203 18.7899V31.3379H35.4745V20.0362C35.4745 17.7937 35.3695 16.3735 35.1582 15.7697C34.9602 15.1775 34.5662 14.6704 34.0413 14.3322C33.5123 13.9714 32.841 13.7932 32.0374 13.7932C31.1188 13.7932 30.2937 14.0232 29.575 14.4803C28.8519 14.9403 28.3229 15.6274 27.9851 16.546C27.6516 17.466 27.482 18.8244 27.482 20.6227V31.3379H21.9375V0.93042H27.482Z" fill="#FEFEFE"/>
</svg>
