<svg width="42" height="32" viewBox="0 0 42 32" fill="none" xmlns="http://www.w3.org/2000/svg"><path d="M5.622.93v11.736c1.787-2.13 3.929-3.203 6.413-3.203 1.279 0 2.425.245 3.453.73 1.03.48 1.8 1.099 2.321 1.85a6.788 6.788 0 011.068 2.5c.19.91.285 2.326.285 4.247v12.548H13.61V20.036c0-2.242-.1-3.663-.312-4.266a2.756 2.756 0 00-1.114-1.438c-.535-.36-1.2-.539-2.004-.539-.92 0-1.745.23-2.462.687-.733.46-1.26 1.147-1.593 2.066-.34.92-.509 2.278-.503 4.077l-.006 10.715H.072V.93h5.551-.001zm21.86 0v11.736c1.788-2.13 3.929-3.203 6.411-3.203 1.275 0 2.43.245 3.459.73 1.026.48 1.797 1.099 2.314 1.85a6.74 6.74 0 011.068 2.5c.191.91.286 2.326.286 4.247v12.548h-5.546V20.036c0-2.242-.104-3.663-.316-4.266a2.746 2.746 0 00-1.117-1.438c-.529-.36-1.2-.539-2.004-.539-.918 0-1.743.23-2.462.687-.723.46-1.252 1.147-1.59 2.066-.333.92-.503 2.278-.503 4.077v10.715h-5.544V.93h5.544z" fill="#FEFEFE"/></svg>